<svg width="33" height="32" viewBox="0 0 33 32" fill="none" xmlns="http://www.w3.org/2000/svg">
<path d="M23.5476 12L17.7109 3.25334C17.5862 3.07673 17.4202 2.93336 17.2274 2.83574C17.0346 2.73812 16.8209 2.68923 16.6048 2.69334C16.1784 2.69334 15.752 2.88001 15.4988 3.26667L9.66204 12H3.27894C2.54602 12 1.94635 12.6 1.94635 13.3333C1.94635 13.4533 1.95968 13.5733 1.99965 13.6933L5.38443 26.0533C5.69093 27.1733 6.71702 28 7.943 28H25.2667C26.4926 28 27.5187 27.1733 27.8386 26.0533L31.2233 13.6933L31.2633 13.3333C31.2633 12.6 30.6636 12 29.9307 12H23.5476ZM12.6071 12L16.6048 6.13334L20.6026 12H12.6071ZM16.6048 22.6667C15.139 22.6667 13.9397 21.4667 13.9397 20C13.9397 18.5333 15.139 17.3333 16.6048 17.3333C18.0707 17.3333 19.27 18.5333 19.27 20C19.27 21.4667 18.0707 22.6667 16.6048 22.6667Z" fill="white"/>
</svg>
